<mxfile host="app.diagrams.net" agent="Mozilla/5.0 (X11; Linux x86_64) AppleWebKit/537.36 (KHTML, like Gecko) Chrome/132.0.0.0 Safari/537.36" version="26.2.14">
  <diagram name="第 1 页" id="ymwS_IY8MIXRyYueqAV2">
    <mxGraphModel dx="515" dy="340" grid="1" gridSize="10" guides="1" tooltips="1" connect="1" arrows="1" fold="1" page="1" pageScale="1" pageWidth="1169" pageHeight="827" math="0" shadow="0">
      <root>
        <mxCell id="0" />
        <mxCell id="1" parent="0" />
        <mxCell id="_RP0dMVc5jquQAwwALMM-1" value="" style="rounded=0;whiteSpace=wrap;html=1;fillStyle=auto;fillColor=#808080;" parent="1" vertex="1">
          <mxGeometry x="430" y="260" width="240" height="120" as="geometry" />
        </mxCell>
        <mxCell id="_RP0dMVc5jquQAwwALMM-3" value="" style="endArrow=none;html=1;rounded=0;" parent="1" edge="1">
          <mxGeometry width="50" height="50" relative="1" as="geometry">
            <mxPoint x="400" y="260" as="sourcePoint" />
            <mxPoint x="430" y="280" as="targetPoint" />
          </mxGeometry>
        </mxCell>
        <mxCell id="_RP0dMVc5jquQAwwALMM-4" value="" style="endArrow=none;html=1;rounded=0;" parent="1" edge="1">
          <mxGeometry width="50" height="50" relative="1" as="geometry">
            <mxPoint x="400" y="272" as="sourcePoint" />
            <mxPoint x="430" y="292" as="targetPoint" />
          </mxGeometry>
        </mxCell>
        <mxCell id="_RP0dMVc5jquQAwwALMM-5" value="" style="endArrow=none;html=1;rounded=0;" parent="1" edge="1">
          <mxGeometry width="50" height="50" relative="1" as="geometry">
            <mxPoint x="400" y="283" as="sourcePoint" />
            <mxPoint x="430" y="303" as="targetPoint" />
          </mxGeometry>
        </mxCell>
        <mxCell id="_RP0dMVc5jquQAwwALMM-6" value="" style="endArrow=none;html=1;rounded=0;" parent="1" edge="1">
          <mxGeometry width="50" height="50" relative="1" as="geometry">
            <mxPoint x="400" y="295" as="sourcePoint" />
            <mxPoint x="430" y="315" as="targetPoint" />
          </mxGeometry>
        </mxCell>
        <mxCell id="_RP0dMVc5jquQAwwALMM-7" value="" style="endArrow=none;html=1;rounded=0;" parent="1" edge="1">
          <mxGeometry width="50" height="50" relative="1" as="geometry">
            <mxPoint x="400" y="306" as="sourcePoint" />
            <mxPoint x="430" y="326" as="targetPoint" />
          </mxGeometry>
        </mxCell>
        <mxCell id="_RP0dMVc5jquQAwwALMM-8" value="" style="endArrow=none;html=1;rounded=0;" parent="1" edge="1">
          <mxGeometry width="50" height="50" relative="1" as="geometry">
            <mxPoint x="400" y="317" as="sourcePoint" />
            <mxPoint x="430" y="337" as="targetPoint" />
          </mxGeometry>
        </mxCell>
        <mxCell id="_RP0dMVc5jquQAwwALMM-9" value="" style="endArrow=none;html=1;rounded=0;" parent="1" edge="1">
          <mxGeometry width="50" height="50" relative="1" as="geometry">
            <mxPoint x="400" y="328" as="sourcePoint" />
            <mxPoint x="430" y="348" as="targetPoint" />
          </mxGeometry>
        </mxCell>
        <mxCell id="_RP0dMVc5jquQAwwALMM-10" value="" style="endArrow=none;html=1;rounded=0;" parent="1" edge="1">
          <mxGeometry width="50" height="50" relative="1" as="geometry">
            <mxPoint x="400" y="339" as="sourcePoint" />
            <mxPoint x="430" y="359" as="targetPoint" />
          </mxGeometry>
        </mxCell>
        <mxCell id="_RP0dMVc5jquQAwwALMM-11" value="" style="endArrow=none;html=1;rounded=0;" parent="1" edge="1">
          <mxGeometry width="50" height="50" relative="1" as="geometry">
            <mxPoint x="400" y="349" as="sourcePoint" />
            <mxPoint x="430" y="369" as="targetPoint" />
          </mxGeometry>
        </mxCell>
        <mxCell id="_RP0dMVc5jquQAwwALMM-12" value="" style="endArrow=none;html=1;rounded=0;" parent="1" edge="1">
          <mxGeometry width="50" height="50" relative="1" as="geometry">
            <mxPoint x="400" y="360" as="sourcePoint" />
            <mxPoint x="430" y="380" as="targetPoint" />
          </mxGeometry>
        </mxCell>
        <mxCell id="_RP0dMVc5jquQAwwALMM-15" value="" style="endArrow=none;html=1;rounded=0;startSize=6;" parent="1" edge="1">
          <mxGeometry width="50" height="50" relative="1" as="geometry">
            <mxPoint x="415" y="260" as="sourcePoint" />
            <mxPoint x="430" y="269" as="targetPoint" />
          </mxGeometry>
        </mxCell>
        <mxCell id="_RP0dMVc5jquQAwwALMM-16" value="" style="endArrow=none;html=1;rounded=0;startSize=6;" parent="1" edge="1">
          <mxGeometry width="50" height="50" relative="1" as="geometry">
            <mxPoint x="400" y="371" as="sourcePoint" />
            <mxPoint x="415" y="380" as="targetPoint" />
          </mxGeometry>
        </mxCell>
        <mxCell id="_RP0dMVc5jquQAwwALMM-17" value="" style="endArrow=classic;html=1;rounded=0;" parent="1" edge="1">
          <mxGeometry width="50" height="50" relative="1" as="geometry">
            <mxPoint x="670" y="380" as="sourcePoint" />
            <mxPoint x="670" y="424" as="targetPoint" />
          </mxGeometry>
        </mxCell>
      </root>
    </mxGraphModel>
  </diagram>
</mxfile>
